<?xml version="1.0" encoding="UTF-8"?>
<svg id="Layer_1" data-name="Layer 1" xmlns="http://www.w3.org/2000/svg" width="30" height="30" viewBox="0 0 30 30">
  <defs>
    <style>
      .cls-1 {
        fill: #fff;
      }
    </style>
  </defs>
  <path class="cls-1" d="M24.89,5.78c-1.84-.86-3.82-1.49-5.88-1.85-.25.46-.55,1.07-.75,1.56-2.19-.33-4.37-.33-6.52,0-.2-.49-.51-1.11-.76-1.56-2.06.36-4.04.99-5.89,1.85C1.37,11.41.37,16.9.87,22.3c2.47,1.84,4.86,2.96,7.21,3.69.58-.8,1.1-1.65,1.54-2.54-.85-.32-1.67-.72-2.43-1.18.2-.15.4-.31.59-.47,4.69,2.19,9.79,2.19,14.42,0,.2.17.39.32.59.47-.77.47-1.59.86-2.44,1.19.45.89.96,1.75,1.54,2.54,2.35-.73,4.75-1.85,7.21-3.7.59-6.26-1.01-11.7-4.24-16.52h0ZM10.26,18.98c-1.41,0-2.56-1.32-2.56-2.91s1.13-2.91,2.56-2.91,2.58,1.32,2.56,2.91c0,1.6-1.13,2.91-2.56,2.91ZM19.73,18.98c-1.41,0-2.56-1.32-2.56-2.91s1.13-2.91,2.56-2.91,2.58,1.32,2.56,2.91c0,1.6-1.13,2.91-2.56,2.91Z"/>
</svg>