<?xml version="1.0" encoding="UTF-8"?>
<svg xmlns="http://www.w3.org/2000/svg" xmlns:xlink="http://www.w3.org/1999/xlink" width="26px" height="30px" viewBox="0 0 26 30" version="1.1">
<g id="surface1">
<path style=" stroke:none;fill-rule:nonzero;fill:rgb(100%,100%,100%);fill-opacity:1;" d="M 20.226562 13.90625 C 20.09375 13.84375 19.960938 13.78125 19.828125 13.726562 C 19.597656 9.460938 17.25 7.015625 13.308594 6.992188 C 11.035156 6.976562 9 7.898438 7.734375 9.808594 L 9.898438 11.285156 C 10.800781 9.929688 12.214844 9.636719 13.257812 9.636719 C 13.269531 9.636719 13.28125 9.636719 13.292969 9.636719 C 14.589844 9.648438 15.570312 10.019531 16.203125 10.753906 C 16.664062 11.285156 16.972656 12.019531 17.125 12.949219 C 15.976562 12.753906 14.730469 12.695312 13.402344 12.769531 C 9.65625 12.984375 7.246094 15.15625 7.410156 18.171875 C 7.492188 19.699219 8.257812 21.015625 9.570312 21.875 C 10.675781 22.605469 12.105469 22.957031 13.589844 22.878906 C 15.546875 22.773438 17.085938 22.027344 18.15625 20.671875 C 18.972656 19.640625 19.484375 18.304688 19.714844 16.621094 C 20.648438 17.179688 21.339844 17.917969 21.722656 18.800781 C 22.371094 20.308594 22.410156 22.78125 20.378906 24.796875 C 18.597656 26.566406 16.457031 27.328125 13.222656 27.351562 C 9.636719 27.328125 6.921875 26.183594 5.160156 23.957031 C 3.507812 21.871094 2.652344 18.855469 2.621094 15 C 2.652344 11.144531 3.507812 8.128906 5.160156 6.042969 C 6.921875 3.816406 9.636719 2.671875 13.222656 2.648438 C 16.835938 2.671875 19.597656 3.820312 21.429688 6.0625 C 22.328125 7.160156 23.003906 8.539062 23.449219 10.148438 L 25.988281 9.476562 C 25.449219 7.492188 24.597656 5.785156 23.4375 4.371094 C 21.089844 1.5 17.65625 0.03125 13.230469 0 L 13.214844 0 C 8.800781 0.03125 5.402344 1.507812 3.121094 4.386719 C 1.09375 6.949219 0.046875 10.519531 0.0117188 14.988281 L 0.0117188 15.011719 C 0.046875 19.480469 1.09375 23.050781 3.121094 25.613281 C 5.402344 28.492188 8.800781 29.96875 13.214844 30 L 13.230469 30 C 17.15625 29.972656 19.925781 28.953125 22.203125 26.6875 C 25.1875 23.730469 25.097656 20.019531 24.113281 17.742188 C 23.410156 16.105469 22.0625 14.78125 20.226562 13.90625 Z M 13.449219 20.234375 C 11.804688 20.328125 10.101562 19.59375 10.015625 18.027344 C 9.953125 16.863281 10.847656 15.566406 13.546875 15.410156 C 13.851562 15.394531 14.15625 15.386719 14.460938 15.386719 C 15.441406 15.386719 16.355469 15.480469 17.191406 15.660156 C 16.878906 19.519531 15.054688 20.148438 13.449219 20.234375 Z M 13.449219 20.234375 "/>
</g>
</svg>
